<svg xmlns="http://www.w3.org/2000/svg" xmlns:xlink="http://www.w3.org/1999/xlink" width="921.271" height="425" viewBox="0 0 921.271 425"><defs><style>.a,.e,.i{fill:none;}.b{clip-path:url(#a);}.c,.j,.k{fill:#fff;}.d{fill:#999393;}.e{stroke:#888b8d;stroke-width:2.033px;}.f{fill:#dbdcdd;}.g{fill:#ea5374;}.h{fill:#878a8c;}.i{stroke:#fff;stroke-miterlimit:10;stroke-width:2px;}.j{font-size:22px;font-family:DroidArabicNaskh-Bold, Droid Arabic Naskh;font-weight:700;}.k{font-size:32px;font-family:DroidArabicNaskh, Droid Arabic Naskh;}</style><clipPath id="a"><rect class="a" width="921.271" height="415.247"/></clipPath></defs><g transform="translate(-221 -2294)"><g transform="translate(223 2294)"><g class="b" transform="translate(-2)"><path class="c" d="M747.44,12.876a4.288,4.288,0,0,1-2.89,5.331h0c-.036.012-.074.023-.111.033L733.921,21.03a4.289,4.289,0,0,1-5.333-2.893c-.011-.036-.022-.073-.032-.111l-1.5-5.794A4.29,4.29,0,0,1,729.947,6.9h0l.107-.032,10.528-2.79a4.461,4.461,0,0,1,5.365,3Z"/><path class="d" d="M733.282,13.305a1.462,1.462,0,0,1-1.716-.859l-.857-3.215a1.459,1.459,0,0,1,.857-1.717l1.716-.429A1.461,1.461,0,0,1,735,7.944l.857,3.219A1.456,1.456,0,0,1,735,12.88Z"/><path class="d" d="M739.291,11.589a1.462,1.462,0,0,1-1.721-.856l-.857-3.215A1.455,1.455,0,0,1,737.57,5.8l1.719-.43a1.461,1.461,0,0,1,1.716.859l.856,3.219a1.456,1.456,0,0,1-.856,1.717Z"/><path class="d" d="M735,19.743a1.461,1.461,0,0,1-1.719-.859l-.857-3.215a1.456,1.456,0,0,1,.857-1.717L735,13.523a1.46,1.46,0,0,1,1.716.859l.857,3.219a1.456,1.456,0,0,1-.857,1.717Z"/><path class="d" d="M740.792,18.026a1.46,1.46,0,0,1-1.716-.859l-.855-3.211a1.457,1.457,0,0,1,.857-1.717l1.716-.429a1.465,1.465,0,0,1,1.719.859l.857,3.219a1.457,1.457,0,0,1-.857,1.717Z"/><path class="c" d="M724.269,20.387a4.226,4.226,0,0,1-1.633,5.748h0l-.084.046L712.9,31.332a4.225,4.225,0,0,1-5.746-1.629c-.015-.029-.032-.059-.046-.087l-2.793-5.152a4.533,4.533,0,0,1,1.719-6.007l9.657-5.152a4.536,4.536,0,0,1,6.009,1.717Z"/><path class="d" d="M710.32,24.25a1.3,1.3,0,0,1-1.8-.387l0,0a1.3,1.3,0,0,1-.126-.253L706.68,20.6a1.308,1.308,0,0,1,.4-1.807,1.337,1.337,0,0,1,.248-.124l1.714-.859a1.307,1.307,0,0,1,1.806.389,1.455,1.455,0,0,1,.127.256l1.717,3a1.307,1.307,0,0,1-.392,1.8,1.24,1.24,0,0,1-.253.125Z"/><path class="d" d="M715.9,21.246a1.307,1.307,0,0,1-1.8-.391,1.33,1.33,0,0,1-.126-.253l-1.714-3a1.307,1.307,0,0,1,.391-1.805h0a1.432,1.432,0,0,1,.251-.125l1.714-.856a1.307,1.307,0,0,1,1.806.392,1.393,1.393,0,0,1,.125.251l1.716,3a1.307,1.307,0,0,1-.39,1.808l-.005,0a1.3,1.3,0,0,1-.253.125Z"/><path class="d" d="M713.539,30.044a1.308,1.308,0,0,1-1.8-.391,1.357,1.357,0,0,1-.126-.253l-1.716-3a1.3,1.3,0,0,1,.644-1.931l1.713-.859a1.314,1.314,0,0,1,1.815.405,1.258,1.258,0,0,1,.119.238l1.716,3.005a1.307,1.307,0,0,1-.392,1.8,1.252,1.252,0,0,1-.251.125Z"/><path class="d" d="M718.9,27.039a1.305,1.305,0,0,1-1.8-.392,1.223,1.223,0,0,1-.125-.251l-1.715-3.006a1.307,1.307,0,0,1,.392-1.8,1.25,1.25,0,0,1,.251-.125l1.714-.859a1.31,1.31,0,0,1,1.807.389,1.507,1.507,0,0,1,.126.255l1.717,3a1.31,1.31,0,0,1-.391,1.806,1.417,1.417,0,0,1-.253.125Z"/><path class="c" d="M703.024,33.692a4.409,4.409,0,0,1-.218,6.224l-7.937,7.516a4.409,4.409,0,0,1-6.224-.218l-4.077-4.293a4.407,4.407,0,0,1,.218-6.223l7.94-7.511a4.41,4.41,0,0,1,6.224.219Z"/><path class="d" d="M690.578,40.773a1.36,1.36,0,0,1-1.912-.194c-.007-.009-.013-.015-.019-.024l-2.361-2.575a1.358,1.358,0,0,1,.193-1.911l.025-.02,1.5-1.288a1.358,1.358,0,0,1,1.911.193.205.205,0,0,0,.019.025l2.362,2.575a1.357,1.357,0,0,1-.192,1.909l0,0a.225.225,0,0,1-.024.019Z"/><path class="d" d="M695.083,36.482a1.355,1.355,0,0,1-1.907-.19l-.022-.027L690.791,33.9A1.356,1.356,0,0,1,690.98,32l.028-.023,1.5-1.288a1.357,1.357,0,0,1,1.909.191h0l.021.026,2.361,2.576a1.357,1.357,0,0,1-.192,1.909l0,0-.024.02Z"/><path class="d" d="M695.083,45.71a1.356,1.356,0,0,1-1.907-.192l-.022-.026-2.363-2.575a1.357,1.357,0,0,1,.189-1.909l.028-.023,1.5-1.287a1.357,1.357,0,0,1,1.91.19l.021.027L696.8,42.49a1.357,1.357,0,0,1-.194,1.91h0a.154.154,0,0,1-.024.019Z"/><path class="d" d="M699.375,41.418a1.355,1.355,0,0,1-1.907-.19c-.008-.01-.015-.017-.022-.027l-2.363-2.361a1.355,1.355,0,0,1,.187-1.907h0a.21.21,0,0,1,.029-.023l1.5-1.288a1.357,1.357,0,0,1,1.909.191h0l.02.026,2.361,2.575a1.357,1.357,0,0,1-.191,1.909l0,0-.024.02Z"/><path class="c" d="M684.353,50.216a4.68,4.68,0,0,1,1.5,6.008l-5.793,9.228a4.683,4.683,0,0,1-6.009,1.5l-4.936-3.216a4.682,4.682,0,0,1-1.5-6.008l5.794-9.228a4.683,4.683,0,0,1,6.009-1.5Z"/><path class="d" d="M674.268,60.087a1.4,1.4,0,0,1-1.925.431l-3.006-1.932a1.354,1.354,0,0,1-.478-1.854v0c.015-.025.032-.05.048-.074l.859-1.5a1.354,1.354,0,0,1,1.855-.479h0c.026.015.051.032.076.048l3,1.932a1.393,1.393,0,0,1,.432,1.923h0v.005Z"/><path class="d" d="M677.487,54.937a1.35,1.35,0,0,1-1.848.479h0c-.027-.015-.053-.032-.078-.049l-3.006-1.931a1.4,1.4,0,0,1-.429-1.931l.859-1.5a1.356,1.356,0,0,1,1.857-.477c.026.015.051.032.076.048l3,1.931a1.351,1.351,0,0,1,.48,1.849h0q-.024.041-.051.081Z"/><path class="d" d="M679.847,63.736a1.4,1.4,0,0,1-1.931.429l-3-1.931a1.352,1.352,0,0,1-.48-1.85c.016-.027.034-.054.051-.081l.857-1.5a1.355,1.355,0,0,1,1.853-.478c.027.015.051.032.076.048l3,1.931a1.4,1.4,0,0,1,.431,1.924h0v.005Z"/><path class="d" d="M683.065,58.371a1.354,1.354,0,0,1-1.853.479l0,0c-.026-.014-.051-.032-.076-.048l-3-1.931a1.4,1.4,0,0,1-.431-1.928l.857-1.5a1.4,1.4,0,0,1,1.933-.43l3,1.932a1.394,1.394,0,0,1,.432,1.924h0v.005Z"/><path class="c" d="M669.334,71.891a4.3,4.3,0,0,1,1.947,5.761l-.016.033-4.721,9.871a4.3,4.3,0,0,1-5.761,1.947l-.033-.016-5.364-2.575a4.3,4.3,0,0,1-1.947-5.76l.017-.034,4.72-9.871a4.3,4.3,0,0,1,5.759-1.953l0,0,.032.016Z"/><path class="d" d="M660.323,83.049a1.435,1.435,0,0,1-1.715.643l-3-1.5a1.437,1.437,0,0,1-.645-1.716l.859-1.716a1.438,1.438,0,0,1,1.716-.643l3.006,1.5a1.439,1.439,0,0,1,.641,1.716Z"/><path class="d" d="M663.108,77.47a1.44,1.44,0,0,1-1.719.643l-3-1.5a1.435,1.435,0,0,1-.643-1.717l.857-1.716a1.438,1.438,0,0,1,1.717-.643l3.006,1.5a1.436,1.436,0,0,1,.641,1.716Z"/><path class="d" d="M666.328,86.053a1.437,1.437,0,0,1-1.719.643l-3-1.5a1.434,1.434,0,0,1-.643-1.717l.857-1.717a1.441,1.441,0,0,1,1.716-.643l3.006,1.5a1.438,1.438,0,0,1,.641,1.717Z"/><path class="d" d="M669.118,80.474a1.437,1.437,0,0,1-1.715.643l-3.005-1.5a1.436,1.436,0,0,1-.644-1.716l.857-1.717a1.441,1.441,0,0,1,1.719-.643l3,1.5a1.435,1.435,0,0,1,.641,1.717Z"/><path class="c" d="M658.6,96.784a4.29,4.29,0,0,1,3.035,5.252c-.01.037-.021.076-.032.113l-3,10.516a4.292,4.292,0,0,1-5.254,3.036l-.113-.032-5.792-1.718a4.292,4.292,0,0,1-3.036-5.257h0l.031-.106,3.005-10.3a4.291,4.291,0,0,1,5.253-3.036h0l.109.03Z"/><path class="d" d="M651.735,109.23a1.354,1.354,0,0,1-1.711.86h0l-3.219-.859a1.352,1.352,0,0,1-.861-1.708v-.005l.427-1.717a1.357,1.357,0,0,1,1.716-.86h0l3.219.858a1.353,1.353,0,0,1,.859,1.71v0Z"/><path class="d" d="M653.237,103.22a1.356,1.356,0,0,1-1.712.86l-3.219-.859a1.355,1.355,0,0,1-.859-1.714l.429-1.716a1.357,1.357,0,0,1,1.716-.859l3.219.859a1.357,1.357,0,0,1,.861,1.712Z"/><path class="d" d="M657.96,111.161a1.356,1.356,0,0,1-1.714.859l-3.219-.859a1.356,1.356,0,0,1-.86-1.714l.428-1.717a1.354,1.354,0,0,1,1.711-.86h0l3.219.859a1.355,1.355,0,0,1,.861,1.712v0Z"/><path class="d" d="M659.675,105.152a1.354,1.354,0,0,1-1.711.86h0l-3.219-.859a1.355,1.355,0,0,1-.859-1.714l.429-1.715a1.356,1.356,0,0,1,1.716-.859l3.219.859a1.355,1.355,0,0,1,.861,1.712Z"/><path class="c" d="M752.167,12.876a4.287,4.287,0,0,0,2.887,5.331h0c.037.012.075.023.112.033l10.522,2.789a4.289,4.289,0,0,0,5.331-2.9l0-.005c.011-.036.022-.072.032-.109l1.5-5.794a4.292,4.292,0,0,0-2.9-5.334h0l-.106-.03L759.036,4.078a4.461,4.461,0,0,0-5.365,3Z"/><path class="d" d="M766.33,13.306a1.461,1.461,0,0,0,1.717-.859l.859-3.219a1.46,1.46,0,0,0-.859-1.717l-1.717-.429a1.459,1.459,0,0,0-1.716.859l-.859,3.219a1.46,1.46,0,0,0,.859,1.717Z"/><path class="d" d="M760.535,11.589a1.459,1.459,0,0,0,1.716-.859l.859-3.219a1.458,1.458,0,0,0-.859-1.717l-1.716-.429a1.461,1.461,0,0,0-1.717.859l-.859,3.219a1.46,1.46,0,0,0,.859,1.717Z"/><path class="d" d="M764.828,19.744a1.462,1.462,0,0,0,1.716-.859l.859-3.219a1.458,1.458,0,0,0-.859-1.717l-1.716-.429a1.46,1.46,0,0,0-1.716.859l-.859,3.219a1.46,1.46,0,0,0,.859,1.717Z"/><path class="d" d="M758.819,18.026a1.461,1.461,0,0,0,1.717-.859l.859-3.219a1.46,1.46,0,0,0-.859-1.717l-1.717-.429a1.46,1.46,0,0,0-1.716.859l-.859,3.219A1.459,1.459,0,0,0,757.1,17.6Z"/><path class="c" d="M775.559,20.386a4.225,4.225,0,0,0,1.625,5.751l0,0c.027.016.057.032.084.046l9.657,5.152a4.226,4.226,0,0,0,5.748-1.633c.016-.028.032-.057.046-.084l2.79-5.152a4.531,4.531,0,0,0-1.715-6.007l-9.657-5.152a4.534,4.534,0,0,0-6.006,1.717Z"/><path class="d" d="M789.078,24.25a1.307,1.307,0,0,0,1.806-.39h0a1.348,1.348,0,0,0,.125-.253l1.718-3a1.306,1.306,0,0,0-.393-1.8,1.273,1.273,0,0,0-.25-.126l-1.714-.857a1.31,1.31,0,0,0-1.807.389,1.39,1.39,0,0,0-.127.256l-1.717,3a1.308,1.308,0,0,0,.392,1.806,1.24,1.24,0,0,0,.253.125Z"/><path class="d" d="M783.714,21.246a1.306,1.306,0,0,0,1.8-.391,1.327,1.327,0,0,0,.126-.253l1.718-3a1.3,1.3,0,0,0-.644-1.931L785,14.814a1.308,1.308,0,0,0-1.807.389,1.378,1.378,0,0,0-.127.255l-1.716,3a1.309,1.309,0,0,0,.392,1.806,1.252,1.252,0,0,0,.251.125Z"/><path class="d" d="M786.076,30.044a1.308,1.308,0,0,0,1.8-.394A1.375,1.375,0,0,0,788,29.4l1.72-3a1.306,1.306,0,0,0-.394-1.8,1.22,1.22,0,0,0-.253-.126l-1.713-.859a1.308,1.308,0,0,0-1.807.392,1.434,1.434,0,0,0-.125.251l-1.719,3a1.3,1.3,0,0,0,.38,1.8,1.365,1.365,0,0,0,.265.132Z"/><path class="d" d="M780.708,27.04a1.309,1.309,0,0,0,1.8-.394,1.281,1.281,0,0,0,.123-.249l1.72-3a1.3,1.3,0,0,0-.381-1.8,1.328,1.328,0,0,0-.264-.132l-1.714-.857a1.307,1.307,0,0,0-1.806.392,1.4,1.4,0,0,0-.125.251l-1.719,3a1.309,1.309,0,0,0,.394,1.808l0,0a1.337,1.337,0,0,0,.254.126Z"/><path class="c" d="M796.8,33.692a4.409,4.409,0,0,0,.219,6.224l7.939,7.509a4.41,4.41,0,0,0,6.225-.217l4.076-4.292a4.41,4.41,0,0,0-.218-6.224l-7.939-7.511a4.413,4.413,0,0,0-6.227.219Z"/><path class="d" d="M809.036,40.774a1.355,1.355,0,0,0,1.907-.19l.021-.027,2.363-2.575a1.358,1.358,0,0,0-.194-1.912.225.225,0,0,0-.024-.019l-1.5-1.288a1.355,1.355,0,0,0-1.907.189l-.021.028-2.362,2.576a1.359,1.359,0,0,0,.2,1.912l0,0a.1.1,0,0,0,.02.015Z"/><path class="d" d="M804.528,36.482a1.357,1.357,0,0,0,1.91-.194h0a.16.16,0,0,0,.02-.024L808.82,33.9a1.358,1.358,0,0,0-.193-1.911l-.025-.02-1.5-1.288a1.357,1.357,0,0,0-1.91.192v0l-.02.024-2.359,2.576A1.357,1.357,0,0,0,803,35.387l0,0,.024.02Z"/><path class="d" d="M804.528,45.709a1.357,1.357,0,0,0,1.91-.194h0a.234.234,0,0,0,.02-.024l2.361-2.575a1.358,1.358,0,0,0-.193-1.911l-.025-.021L807.1,39.7a1.358,1.358,0,0,0-1.911.193l-.02.025-2.359,2.576A1.357,1.357,0,0,0,803,44.4l0,0a.154.154,0,0,0,.024.019Z"/><path class="d" d="M800.238,41.418a1.357,1.357,0,0,0,1.91-.194h0l.019-.024,2.361-2.361a1.357,1.357,0,0,0-.191-1.91h0l-.025-.02-1.5-1.288a1.357,1.357,0,0,0-1.91.192v0l-.019.024-2.359,2.576a1.357,1.357,0,0,0,.191,1.909l0,0,.024.02Z"/><path class="c" d="M815.259,50.216a4.681,4.681,0,0,0-1.5,6.008l5.793,9.228a4.684,4.684,0,0,0,6.01,1.5l4.937-3.219a4.681,4.681,0,0,0,1.5-6.008L826.207,48.5A4.681,4.681,0,0,0,820.2,47Z"/><path class="d" d="M825.345,60.087a1.4,1.4,0,0,0,1.93.43l3-1.932a1.352,1.352,0,0,0,.478-1.852v0c-.014-.026-.033-.052-.049-.076l-.857-1.5a1.4,1.4,0,0,0-1.93-.431l-3,1.932a1.4,1.4,0,0,0-.429,1.929Z"/><path class="d" d="M822.126,54.937a1.354,1.354,0,0,0,1.853.479l0,0a.882.882,0,0,0,.076-.048l3-1.931a1.4,1.4,0,0,0,.431-1.929l-.858-1.5a1.355,1.355,0,0,0-1.855-.478c-.027.015-.051.033-.077.049l-3,1.931a1.355,1.355,0,0,0-.478,1.855c.016.025.032.051.05.076Z"/><path class="d" d="M819.765,63.736a1.352,1.352,0,0,0,1.85.479h0c.026-.015.05-.032.076-.049l3.007-1.931a1.354,1.354,0,0,0,.475-1.856c-.014-.025-.031-.051-.047-.075l-.859-1.5a1.4,1.4,0,0,0-1.933-.43h0l-3,1.931a1.4,1.4,0,0,0-.432,1.925v.005Z"/><path class="d" d="M816.546,58.371a1.353,1.353,0,0,0,1.852.478c.025-.015.051-.032.076-.049l3.007-1.931a1.4,1.4,0,0,0,.428-1.931l-.859-1.5a1.356,1.356,0,0,0-1.857-.478l-.076.048-3,1.932a1.4,1.4,0,0,0-.432,1.924h0v.007Z"/><path class="c" d="M830.283,71.891a4.3,4.3,0,0,0-1.948,5.76c.007.012.013.024.019.036l4.72,9.871a4.3,4.3,0,0,0,5.761,1.947l.033-.016,5.365-2.575a4.3,4.3,0,0,0,1.946-5.761l-.015-.033-4.721-9.871a4.3,4.3,0,0,0-5.761-1.947h0l-.031.016Z"/><path class="d" d="M839.079,83.049a1.435,1.435,0,0,0,1.716.643l3-1.5a1.438,1.438,0,0,0,.645-1.716l-.859-1.716a1.437,1.437,0,0,0-1.717-.643l-3.006,1.5a1.439,1.439,0,0,0-.641,1.716Z"/><path class="d" d="M836.507,77.47a1.439,1.439,0,0,0,1.716.643l3-1.5a1.435,1.435,0,0,0,.643-1.717l-.859-1.717a1.438,1.438,0,0,0-1.716-.643l-3.007,1.5a1.441,1.441,0,0,0-.642,1.716Z"/><path class="d" d="M833.285,86.053A1.437,1.437,0,0,0,835,86.7l3-1.5a1.438,1.438,0,0,0,.644-1.718l-.859-1.717a1.443,1.443,0,0,0-1.716-.643l-3.007,1.5a1.441,1.441,0,0,0-.642,1.717Z"/><path class="d" d="M830.71,80.474a1.439,1.439,0,0,0,1.716.643l3.005-1.5a1.439,1.439,0,0,0,.643-1.716l-.859-1.717a1.439,1.439,0,0,0-1.716-.643l-3,1.5a1.434,1.434,0,0,0-.643,1.717Z"/><path class="c" d="M841.226,96.784a4.289,4.289,0,0,0-3.037,5.251h0c.011.037.02.076.031.113l3,10.516a4.3,4.3,0,0,0,5.255,3.036l.111-.032,5.791-1.718a4.289,4.289,0,0,0,3.039-5.251v0c-.009-.037-.02-.074-.031-.11l-3-10.515a4.288,4.288,0,0,0-5.249-3.037h0c-.037.009-.076.02-.112.032Z"/><path class="d" d="M848.093,109.23a1.361,1.361,0,0,0,1.72.859l3.218-.859a1.354,1.354,0,0,0,.854-1.707v-.005l-.428-1.717a1.355,1.355,0,0,0-1.713-.86l-3.218.858a1.356,1.356,0,0,0-.86,1.712Z"/><path class="d" d="M846.376,103.221a1.358,1.358,0,0,0,1.716.859l3.22-.859a1.356,1.356,0,0,0,.859-1.713l-.426-1.72a1.355,1.355,0,0,0-1.711-.861h0l-3.219.859a1.357,1.357,0,0,0-.86,1.714Z"/><path class="d" d="M841.654,111.162a1.36,1.36,0,0,0,1.719.859l3.218-.859a1.355,1.355,0,0,0,.859-1.712l-.429-1.717a1.356,1.356,0,0,0-1.713-.86h0l-3.218.859a1.355,1.355,0,0,0-.859,1.712Z"/><path class="d" d="M840.152,105.152a1.353,1.353,0,0,0,1.709.861h0l3.219-.859a1.352,1.352,0,0,0,.859-1.709v-.007l-.427-1.715a1.358,1.358,0,0,0-1.717-.86h0l-3.219.859a1.353,1.353,0,0,0-.861,1.707v0Z"/><path class="e" d="M648.946,120.39S667.186,18.67,750.665,10.3c0,0,75.758,5.8,101.719,110.089"/><path class="f" d="M62.877,115.669c3.863.218,7.728,1.073,11.589.643,1.073-.217,2.79-.429,3.219-1.717,11.159-45.28,29.4-91.2,74.68-91.2s64.379,46.354,75.539,91.848c0,0,23.177,4.292,22.313-9.228C246.788,47.641,206.443,0,152.365,0S54.512,47.426,54.512,106.016c0-.218-3.219,9.014,8.369,9.657"/><path class="c" d="M62.877,115.669c3.863.218,7.728,1.073,11.589.643,1.073-.217,2.79-.429,3.219-1.717,11.159-45.28,29.4-91.2,74.68-91.2s64.379,46.354,75.539,91.848c0,0,23.177,4.292,22.313-9.228C246.788,47.641,206.443,0,152.365,0S54.512,47.426,54.512,106.016c0-.218-3.219,9.014,8.369,9.657"/><path class="c" d="M201.941,93.569V78.328a15.238,15.238,0,0,0-30.477,0V93.569h4.506V78.328A10.516,10.516,0,0,1,197,78.114V93.569Z"/><path class="c" d="M141.635,77.255a10.648,10.648,0,0,1,10.51-9.228,10.469,10.469,0,0,1,10.516,9.228h4.505a14.99,14.99,0,0,0-15.021-13.734,15.142,15.142,0,0,0-15.021,13.734Z"/><path class="c" d="M162.666,80.045a10.649,10.649,0,0,1-10.521,9.228,10.469,10.469,0,0,1-10.51-9.228h-4.506a14.989,14.989,0,0,0,15.016,13.733,15.14,15.14,0,0,0,15.026-13.733Z"/><path class="c" d="M132.408,80.045c0-.43.218-.859.218-1.5a15.238,15.238,0,1,0-15.238,15.238,15.016,15.016,0,0,0,13.949-9.228h-5.152a10.781,10.781,0,0,1-8.8,4.72,10.469,10.469,0,0,1-10.513-9.23ZM117.387,68.027a10.624,10.624,0,0,1,10.086,7.509H107.3a10.623,10.623,0,0,1,10.086-7.509"/><path class="c" d="M113.093,112.45l-.218-1.288h-.218a2.864,2.864,0,0,1-1.288,1.073,4.024,4.024,0,0,1-1.717.429,3.623,3.623,0,0,1-2.146-.642,2.62,2.62,0,0,1-.643-1.932c0-1.716,1.5-2.575,4.292-2.789h1.5v-.644a3.112,3.112,0,0,0-.429-1.5,1.811,1.811,0,0,0-1.5-.429,6.484,6.484,0,0,0-2.575.643l-.429-1.073a10.451,10.451,0,0,1,1.5-.643,4.175,4.175,0,0,1,1.5-.218,3.451,3.451,0,0,1,2.361.644,3.275,3.275,0,0,1,.859,2.145v6.008c0,.218-.859.218-.859.218m-3.219-.859a2.276,2.276,0,0,0,2.575-1.931,2.315,2.315,0,0,0,0-.644v-.858h-1.5a5.735,5.735,0,0,0-2.361.428,1.669,1.669,0,0,0-.643,1.5,1.637,1.637,0,0,0,.429,1.073,5.447,5.447,0,0,0,1.5.429"/><rect class="c" width="1.502" height="12.661" transform="translate(123.823 99.788)"/><path class="c" d="M134.982,101.291a.946.946,0,0,1,.218-.641.789.789,0,0,1,.643-.218c.218,0,.429.218.643.218a.785.785,0,0,1,.218.643.941.941,0,0,1-.218.643.789.789,0,0,1-.643.218c-.218,0-.429-.218-.643-.218a.788.788,0,0,1-.218-.643m1.5,11.159h-1.5v-9.015h1.5Z"/><path class="c" d="M153.652,103.649v.86l-1.716.218c.218.218.218.428.429.643a1.921,1.921,0,0,1,.218,1.073,3.806,3.806,0,0,1-.859,2.146,4.511,4.511,0,0,1-2.361.859.788.788,0,0,1-.643-.219c-.643.43-.859.643-.859,1.074,0,.218.218.428.429.643a1.613,1.613,0,0,0,1.073.218h1.713a3.2,3.2,0,0,1,2.146.643,2.416,2.416,0,0,1,.3,3.4l0,0a2.389,2.389,0,0,1-.512.456,6.636,6.636,0,0,1-3.434.859,4.12,4.12,0,0,1-2.575-.642,2.1,2.1,0,0,1-.859-1.932,3.1,3.1,0,0,1,.429-1.5,3.486,3.486,0,0,1,1.5-.859c-.218-.217-.429-.217-.643-.428a.785.785,0,0,1-.218-.643c0-.43.218-.644.218-.859a2.959,2.959,0,0,1,.859-.643,2.149,2.149,0,0,1-1.073-.859,3.109,3.109,0,0,1-.429-1.5,3.283,3.283,0,0,1,.859-2.146,4.508,4.508,0,0,1,2.361-.859,2.71,2.71,0,0,1,1.288.219Zm-7.082,10.3a1.181,1.181,0,0,0,.643,1.074,3.325,3.325,0,0,0,1.717.428,8.058,8.058,0,0,0,2.575-.428,1.622,1.622,0,0,0,.859-1.5,1.645,1.645,0,0,0-.429-1.074c-.218-.218-.859-.218-1.717-.218H148.5a3.1,3.1,0,0,0-1.5.43,1.573,1.573,0,0,0-.429,1.287m.643-7.509a1.952,1.952,0,0,0,.643,1.5,1.814,1.814,0,0,0,1.5.428,1.931,1.931,0,1,0,0-3.862h0a3.108,3.108,0,0,0-1.5.428c-.643.43-.643.859-.643,1.5"/><path class="c" d="M168.46,112.45v-5.581a4.031,4.031,0,0,0-.429-1.716,1.945,1.945,0,0,0-1.5-.643,3.2,3.2,0,0,0-2.146.643,3.455,3.455,0,0,0-.643,2.361v4.721h-1.5v-8.8h1.073l.218,1.073h.218a2.581,2.581,0,0,1,1.073-1.073,4.052,4.052,0,0,1,1.71-.429,2.675,2.675,0,0,1,2.361.859,2.934,2.934,0,0,1,.859,2.361v5.794Z"/><path class="c" d="M183.266,112.664a5.274,5.274,0,0,1-3.219-1.073c-.859-.643-1.073-1.93-1.073-3.433a5.457,5.457,0,0,1,1.073-3.435,3.46,3.46,0,0,1,2.79-1.287,3.554,3.554,0,0,1,2.575,1.073,4.2,4.2,0,0,1,.859,3v.859h-6.226a2.672,2.672,0,0,0,.859,2.361,2.259,2.259,0,0,0,2.146.859,5.942,5.942,0,0,0,2.79-.643v1.073a3.112,3.112,0,0,1-1.5.429,4.325,4.325,0,0,1-1.073.218m-.218-8.155a2.433,2.433,0,0,0-1.717.643,2.618,2.618,0,0,0-.643,1.931h4.721a2.626,2.626,0,0,0-.643-1.931c-.643-.217-1.073-.643-1.717-.643"/><path class="c" d="M200.006,103.437a1.942,1.942,0,0,1,1.073.218l-.218,1.289a1.618,1.618,0,0,0-.859-.218,3.853,3.853,0,0,0-1.931.859,3.8,3.8,0,0,0-.859,2.145v4.721h-1.5v-9.014h1.073l.218,1.717h.218c.429-.643.643-1.072,1.073-1.287a4.051,4.051,0,0,1,1.717-.43"/><path class="g" d="M749.806,153.867a23.537,23.537,0,1,0,.134,0h-.134"/><path class="c" d="M763.971,170.606,747.23,187.345a5.623,5.623,0,0,1-1.717,1.288,11.035,11.035,0,0,1-1.714-1.288l-8.372-8.37a1.962,1.962,0,0,1,0-2.575l1.074-1.072a1.958,1.958,0,0,1,2.575,0l4.936,4.935a1.957,1.957,0,0,0,2.575,0l13.31-13.3a1.962,1.962,0,0,1,2.575,0l1.072,1.074a1.459,1.459,0,0,1,.43,2.574"/><path class="g" d="M152.147,153.867a23.538,23.538,0,1,0,.135,0h-.135"/><path class="c" d="M168.032,169.747l-18.67,18.668a6.385,6.385,0,0,1-1.931,1.5,6.429,6.429,0,0,1-1.931-1.5l-9.229-9.226a2.077,2.077,0,0,1-.071-2.934l.071-.071,1.288-1.288a2.076,2.076,0,0,1,2.933-.071l.071.071,5.366,5.369a2.073,2.073,0,0,0,2.931.073l0,0c.024-.022.048-.046.071-.071l14.8-14.8a2.077,2.077,0,0,1,2.933-.071c.024.024.048.047.071.071l1.286,1.286a2.575,2.575,0,0,1,0,3"/><path class="c" d="M749.806,225.329a23.536,23.536,0,1,0,.137,0h-.137"/><path class="h" d="M760.751,255.372a1.6,1.6,0,0,1,0,1.929l-2.363,2.363a1.6,1.6,0,0,1-1.929,0l-6.655-6.655-6.651,6.655a1.6,1.6,0,0,1-1.933,0l-2.358-2.366a1.6,1.6,0,0,1,0-1.929l6.65-6.654-6.65-6.652a1.6,1.6,0,0,1,0-1.933l2.359-2.358a1.6,1.6,0,0,1,1.933,0l6.651,6.649,6.655-6.649a1.6,1.6,0,0,1,1.929,0l2.363,2.358a1.61,1.61,0,0,1,0,1.933l-6.655,6.653Z"/><path class="g" d="M152.147,225.329a23.537,23.537,0,1,0,.137,0h-.137"/><path class="c" d="M166.315,242.067l-16.739,16.739a5.639,5.639,0,0,1-1.717,1.288,10.722,10.722,0,0,1-1.717-1.288l-8.369-8.369a1.96,1.96,0,0,1,0-2.575l1.073-1.073a1.96,1.96,0,0,1,2.575,0l4.936,4.936a1.96,1.96,0,0,0,2.575,0l13.3-13.305a1.96,1.96,0,0,1,2.575,0l1.073,1.073a1.466,1.466,0,0,1,.429,2.575"/><path class="c" d="M749.806,296.575a23.536,23.536,0,1,0,.137,0h-.137"/><path class="h" d="M760.751,326.833a1.606,1.606,0,0,1,0,1.931l-2.363,2.361a1.6,1.6,0,0,1-1.929,0l-6.655-6.653-6.651,6.653a1.6,1.6,0,0,1-1.933,0l-2.359-2.361a1.6,1.6,0,0,1,0-1.931l6.65-6.652-6.65-6.654a1.6,1.6,0,0,1,0-1.931l2.359-2.361a1.607,1.607,0,0,1,1.933,0l6.651,6.653,6.655-6.653a1.6,1.6,0,0,1,1.929,0l2.363,2.361a1.606,1.606,0,0,1,0,1.931l-6.655,6.654Z"/><path class="g" d="M152.147,296.575a23.537,23.537,0,1,0,.137,0h-.137"/><path class="c" d="M166.315,313.528l-16.739,16.739a5.608,5.608,0,0,1-1.717,1.288,10.619,10.619,0,0,1-1.717-1.288l-8.369-8.37a1.958,1.958,0,0,1,0-2.574l1.073-1.073a1.96,1.96,0,0,1,2.575,0l4.936,4.936a1.96,1.96,0,0,0,2.575,0l13.3-13.306a1.962,1.962,0,0,1,2.575,0l1.073,1.074a1.458,1.458,0,0,1,.429,2.575"/><path class="c" d="M749.806,368.036a23.536,23.536,0,1,0,.137,0h-.137"/><path class="h" d="M760.751,398.3a1.6,1.6,0,0,1,0,1.93l-2.363,2.362a1.6,1.6,0,0,1-1.929,0l-6.655-6.653-6.651,6.653a1.6,1.6,0,0,1-1.933,0l-2.359-2.362a1.6,1.6,0,0,1,0-1.93l6.65-6.653-6.65-6.653a1.6,1.6,0,0,1,0-1.931l2.359-2.361a1.61,1.61,0,0,1,1.933,0l6.651,6.653,6.655-6.653a1.6,1.6,0,0,1,1.929,0l2.363,2.361a1.606,1.606,0,0,1,0,1.931l-6.655,6.653Z"/><path class="g" d="M152.147,368.036a23.537,23.537,0,1,0,.137,0h-.137"/><path class="c" d="M166.315,384.774l-16.739,16.739a5.664,5.664,0,0,1-1.717,1.288,10.889,10.889,0,0,1-1.717-1.288l-8.369-8.37a1.958,1.958,0,0,1,0-2.574l1.073-1.073a1.96,1.96,0,0,1,2.575,0l4.937,4.939a1.96,1.96,0,0,0,2.575,0l13.305-13.306a1.962,1.962,0,0,1,2.575,0l1.073,1.074a1.458,1.458,0,0,1,.429,2.575"/><line class="i" x2="921.271" transform="translate(0 213.096)"/><line class="i" x2="921.271" transform="translate(0 284.557)"/><line class="i" x2="921.271" transform="translate(0 356.018)"/></g></g><text class="j" transform="translate(1044 2405)"><tspan x="-147.898" y="0">التقويم المعدني</tspan></text><text class="k" transform="translate(806 2478)"><tspan x="-248.984" y="0">يعالج سوء الإطباق</tspan></text><text class="k" transform="translate(757 2551)"><tspan x="-146.625" y="0">يمكن ازالته</tspan></text><text class="k" transform="translate(731 2624)"><tspan x="-80.797" y="0">شفاف</tspan></text><text class="k" transform="translate(785 2697)"><tspan x="-204.078" y="0">لطيف على اللثة</tspan></text></g></svg>