<svg xmlns="http://www.w3.org/2000/svg" width="105.599" height="56.258" viewBox="0 0 105.599 56.258"><defs><style>.a{fill:#878a8c;}.b{fill:#00c6b0;}</style></defs><g transform="translate(0 0)"><g transform="translate(73.556)"><path class="a" d="M517.018,426.626V410.6a16.021,16.021,0,0,0-32.043,0v16.022h4.807V410.6a11.215,11.215,0,0,1,22.429,0v16.022Z" transform="translate(-484.975 -394.583)"/></g><g transform="translate(36.849)"><path class="b" d="M443.266,409.119a11.213,11.213,0,0,1,22.228,0h4.836a16.019,16.019,0,0,0-31.9,0Z" transform="translate(-438.43 -394.583)"/><path class="b" d="M465.494,416.782a11.213,11.213,0,0,1-22.228,0H438.43a16.019,16.019,0,0,0,31.9,0Z" transform="translate(-438.43 -399.275)"/></g><path class="a" d="M423.676,412.09c.045-.489.071-.984.071-1.486a16.011,16.011,0,1,0-1.284,6.293h-5.453a11.214,11.214,0,0,1-20.4-4.807h27.064Zm-15.95-12.7a11.219,11.219,0,0,1,10.714,7.893H397.011A11.219,11.219,0,0,1,407.726,399.39Z" transform="translate(-391.704 -394.583)"/></g><g transform="translate(4.895 38.628)"><path class="b" d="M404.42,457.978l-.285-1.343h-.069a3.975,3.975,0,0,1-1.408,1.2,4.284,4.284,0,0,1-1.751.314,3.152,3.152,0,0,1-2.2-.722,2.639,2.639,0,0,1-.8-2.058q0-2.858,4.572-3l1.6-.051v-.586a2.393,2.393,0,0,0-.478-1.64,1.966,1.966,0,0,0-1.528-.529,6.218,6.218,0,0,0-2.669.723l-.439-1.094a6.722,6.722,0,0,1,1.528-.594,6.611,6.611,0,0,1,1.666-.215,3.6,3.6,0,0,1,2.5.749,3.127,3.127,0,0,1,.813,2.4v6.439Zm-3.229-1.007a2.9,2.9,0,0,0,2.1-.732,2.706,2.706,0,0,0,.762-2.049v-.852l-1.429.06a5.2,5.2,0,0,0-2.457.529,1.6,1.6,0,0,0-.753,1.46,1.471,1.471,0,0,0,.469,1.179A1.946,1.946,0,0,0,401.191,456.971Z" transform="translate(-397.911 -444.584)"/><path class="b" d="M422.08,456.958h-1.429V443.564h1.429Z" transform="translate(-402.718 -443.564)"/><path class="b" d="M435.563,445.089a.95.95,0,0,1,.241-.719.892.892,0,0,1,1.2,0,.931.931,0,0,1,.25.715.945.945,0,0,1-.25.718.872.872,0,0,1-1.2,0A.964.964,0,0,1,435.563,445.089Zm1.55,11.991h-1.429v-9.434h1.429Z" transform="translate(-405.87 -443.686)"/><path class="b" d="M458.187,448.539v.9l-1.748.207a3.067,3.067,0,0,1,.62,1.885,2.789,2.789,0,0,1-.947,2.213,3.821,3.821,0,0,1-2.6.826,4.276,4.276,0,0,1-.792-.069,1.406,1.406,0,0,0-.912,1.214.615.615,0,0,0,.319.573,2.319,2.319,0,0,0,1.093.185h1.67a3.743,3.743,0,0,1,2.355.645,2.243,2.243,0,0,1,.822,1.877,2.68,2.68,0,0,1-1.256,2.389,6.728,6.728,0,0,1-3.667.823,5.012,5.012,0,0,1-2.854-.689,2.223,2.223,0,0,1-1-1.946,2.185,2.185,0,0,1,.551-1.489,2.812,2.812,0,0,1,1.55-.852,1.491,1.491,0,0,1-.607-.508,1.345,1.345,0,0,1-.245-.8,1.525,1.525,0,0,1,.275-.9,2.911,2.911,0,0,1,.87-.749,2.542,2.542,0,0,1-1.192-1.024,3.014,3.014,0,0,1-.461-1.653,3.052,3.052,0,0,1,.93-2.389,3.794,3.794,0,0,1,2.634-.84,4.776,4.776,0,0,1,1.334.173Zm-7.524,11.019a1.281,1.281,0,0,0,.646,1.162,3.559,3.559,0,0,0,1.85.4,5.167,5.167,0,0,0,2.665-.538,1.648,1.648,0,0,0,.865-1.459,1.153,1.153,0,0,0-.474-1.063,3.674,3.674,0,0,0-1.781-.3h-1.713a2.254,2.254,0,0,0-1.515.465A1.659,1.659,0,0,0,450.664,459.557Zm.775-8a1.92,1.92,0,0,0,.56,1.5,2.231,2.231,0,0,0,1.558.508,1.822,1.822,0,0,0,2.091-2.031,1.875,1.875,0,0,0-2.117-2.126,2.094,2.094,0,0,0-1.55.542A2.182,2.182,0,0,0,451.438,451.56Z" transform="translate(-408.77 -444.579)"/><path class="b" d="M478.9,457.973v-6.1a2.461,2.461,0,0,0-.525-1.722,2.14,2.14,0,0,0-1.644-.568,2.711,2.711,0,0,0-2.169.8,4.037,4.037,0,0,0-.689,2.643v4.949H472.44v-9.434H473.6l.233,1.291h.069a2.919,2.919,0,0,1,1.231-1.08,4.006,4.006,0,0,1,1.765-.383,3.581,3.581,0,0,1,2.565.823,3.5,3.5,0,0,1,.861,2.63v6.154Z" transform="translate(-413.664 -444.579)"/><path class="b" d="M499.417,458.145a4.335,4.335,0,0,1-3.3-1.274,4.932,4.932,0,0,1-1.209-3.538,5.47,5.47,0,0,1,1.123-3.625,3.733,3.733,0,0,1,3.017-1.343,3.558,3.558,0,0,1,2.806,1.167,4.466,4.466,0,0,1,1.033,3.077v.9h-6.5a3.738,3.738,0,0,0,.839,2.522,2.9,2.9,0,0,0,2.243.861,7.592,7.592,0,0,0,3.013-.637v1.274a7.572,7.572,0,0,1-1.433.469A8.062,8.062,0,0,1,499.417,458.145Zm-.387-8.582a2.335,2.335,0,0,0-1.811.74,3.41,3.41,0,0,0-.8,2.049h4.932a3.14,3.14,0,0,0-.6-2.07A2.122,2.122,0,0,0,499.03,449.563Z" transform="translate(-418.413 -444.579)"/><path class="b" d="M521.83,448.366a5.557,5.557,0,0,1,1.128.1l-.2,1.325a4.861,4.861,0,0,0-1.032-.129,2.516,2.516,0,0,0-1.959.93,3.39,3.39,0,0,0-.813,2.315v5.061h-1.429v-9.434H518.7l.164,1.748h.069a4.144,4.144,0,0,1,1.266-1.42A2.848,2.848,0,0,1,521.83,448.366Z" transform="translate(-423.194 -444.579)"/></g></svg>